<?xml version="1.0" encoding="UTF-8"?>
<svg version="1.1" xmlns="http://www.w3.org/2000/svg" width="1240" height="439">
<path d="M0 0 C19.8 0 39.6 0 60 0 C60 59.73 60 119.46 60 181 C74.19 181 88.38 181 103 181 C103 201.13 103 221.26 103 242 C89.14 242.33 75.28 242.66 61 243 C60.67 262.14 60.34 281.28 60 301 C38.22 301 16.44 301 -6 301 C-6 281.53 -6 262.06 -6 242 C-58.8 242 -111.6 242 -166 242 C-166.33 246.62 -166.66 251.24 -167 256 C-171.03002793 270.92602935 -178.54830722 282.93510952 -191.875 291.3125 C-225.21185382 309.71776144 -271.59829158 310.63133541 -307.91943359 300.609375 C-328.18863639 294.6727486 -347.21109039 283.81143214 -358 265 C-363.3674468 254.92649796 -366.61852512 245.1660375 -367.53393555 233.79125977 C-367.6218486 232.70764664 -367.70976166 231.62403351 -367.80033875 230.50758362 C-367.86622696 229.68008102 -367.93211517 228.85257843 -368 228 C-359.4119428 227.97687365 -350.82389851 227.95908342 -342.23581791 227.94818783 C-338.248428 227.94295964 -334.26105933 227.93586316 -330.27368164 227.92456055 C-326.42874886 227.91372939 -322.58383655 227.90772268 -318.73888969 227.90512276 C-317.26881017 227.90326892 -315.79873182 227.89964909 -314.32866096 227.89426994 C-312.27645533 227.88705645 -310.22433533 227.88600919 -308.17211914 227.88647461 C-307.00185684 227.884254 -305.83159454 227.88203339 -304.62586975 227.87974548 C-302 228 -302 228 -301 229 C-300.72753301 230.85099859 -300.48234809 232.70603874 -300.25 234.5625 C-299.11702279 241.62052841 -296.75977414 246.16137517 -291.8125 251.25 C-282.85579512 256.82306082 -274.15513267 258.19169058 -263.8125 258.25 C-262.91724609 258.270625 -262.02199219 258.29125 -261.09960938 258.3125 C-252.19145662 258.36395503 -244.05199986 256.64159989 -237 251 C-234.17493927 246.7624089 -234.45130159 242.97804641 -235 238 C-236.3509288 235.0745356 -236.3509288 235.0745356 -238 233 C-238 232.34 -238 231.68 -238 231 C-238.56203125 230.71898437 -239.1240625 230.43796875 -239.703125 230.1484375 C-241.21773126 229.39113437 -242.72828815 228.62567008 -244.234375 227.8515625 C-256.45185645 221.89459173 -269.92551003 219.68615109 -283.22564697 217.42041016 C-337.31115174 208.1443609 -337.31115174 208.1443609 -351.79296875 189.78125 C-360.16909514 177.42036446 -360.84323901 162.48342189 -358.3125 148.08984375 C-354.1751322 133.62629547 -345.33149697 122.28629871 -332.3125 114.6875 C-315.89874017 105.61054972 -296.37376872 101.8575774 -277.7421875 101.83203125 C-276.44391525 101.82703865 -276.44391525 101.82703865 -275.11941528 101.82194519 C-273.29576137 101.8169094 -271.47209835 101.81453582 -269.6484375 101.81469727 C-266.90348523 101.81252257 -264.15894328 101.79436332 -261.4140625 101.77539062 C-236.2161252 101.6926369 -208.79710769 105.65568409 -189.95703125 123.93652344 C-188.6243334 125.27755065 -187.31152745 126.63826093 -186 128 C-185.31292969 128.66773438 -184.62585938 129.33546875 -183.91796875 130.0234375 C-174.87921424 139.35757614 -170 153.21399679 -170 166 C-191.45 166 -212.9 166 -235 166 C-236.98 160.555 -236.98 160.555 -239 155 C-243.06382357 149.50188575 -249.8478555 146.05969659 -256.43359375 144.37890625 C-266.31920718 142.91938646 -277.35852965 143.27266521 -285.7890625 149.2734375 C-289.11218394 152.47995819 -290.91759033 155.27008576 -291.4375 159.875 C-291.31298468 162.96524381 -290.99275158 164.01181224 -289.3125 166.75 C-280.88740844 173.72698369 -266.18518463 174.31275825 -255.75216675 175.94970703 C-193.28281421 185.82742754 -193.28281421 185.82742754 -175.68359375 209.390625 C-169.50172403 218.97180591 -166.52616665 228.62799956 -167 240 C-163.7615628 236.89948602 -161.09331671 233.90310834 -158.6875 230.125 C-154.68015647 223.97788625 -150.5146408 217.95299839 -146.3125 211.9375 C-141.34228953 204.81358904 -136.39307527 197.67712501 -131.5 190.5 C-125.9866422 182.41581167 -120.40574561 174.37987825 -114.81176758 166.35131836 C-109.17377057 158.25739377 -103.57677229 150.13618122 -98 142 C-91.01281786 131.80611417 -83.97722981 121.64712021 -76.91455078 111.50537109 C-71.2438479 103.35905072 -65.6116502 95.18706603 -60 87 C-53.74301154 77.87142358 -47.45182657 68.76785492 -41.125 59.6875 C-35.69587699 51.89511917 -30.30410949 44.07912032 -24.95385742 36.23242188 C-19.81105047 28.70037411 -14.59905987 21.21686946 -9.37890625 13.73828125 C-8.73695313 12.81789063 -8.095 11.8975 -7.43359375 10.94921875 C-6.86697021 10.13799561 -6.30034668 9.32677246 -5.71655273 8.4909668 C-3.78048589 5.68145322 -1.89263523 2.83895284 0 0 Z M-7 91 C-8.85048996 93.5966175 -10.64630736 96.2118685 -12.421875 98.859375 C-13.26824524 100.11328033 -13.26824524 100.11328033 -14.13171387 101.39251709 C-16.00834738 104.17575929 -17.87945411 106.96266341 -19.75 109.75 C-21.04654308 111.67773868 -22.34309264 113.605473 -23.63964844 115.53320312 C-32.58386391 128.84636494 -41.47476013 142.19503909 -50.31750488 155.57580566 C-51.60518542 157.52428569 -52.89384036 159.47212211 -54.18347168 161.41931152 C-55.98538006 164.14171061 -57.78254304 166.8671754 -59.578125 169.59375 C-60.11530151 170.40430847 -60.65247803 171.21486694 -61.20593262 172.04998779 C-61.93785828 173.16509735 -61.93785828 173.16509735 -62.68457031 174.30273438 C-63.11006165 174.94803101 -63.53555298 175.59332764 -63.97393799 176.25817871 C-65.16095996 178.13447438 -65.16095996 178.13447438 -66 181 C-46.2 181 -26.4 181 -6 181 C-6 151.3 -6 121.6 -6 91 C-6.33 91 -6.66 91 -7 91 Z " fill="#0DDFB9" transform="translate(1117,14)"/>
<path d="M0 0 C144.23489933 0 144.23489933 0 183 32 C184.06432829 32.83952624 185.12946111 33.67803332 186.1953125 34.515625 C215.92527399 58.28990299 233.68356546 95.40221563 238.0546875 132.83349609 C242.05984238 172.31613089 233.03488917 212.45407597 208.390625 244.12109375 C204.11807754 249.26630205 199.60571528 254.15337039 195 259 C194.43023437 259.63421875 193.86046875 260.2684375 193.2734375 260.921875 C170.62510556 285.31238632 136.43230209 295.53351268 105 301 C70.35 301 35.7 301 0 301 C0 201.67 0 102.34 0 0 Z M66 62 C66 120.74 66 179.48 66 240 C99.01163032 240 123.5405012 237.35938714 147 214 C147.73089844 213.30390625 148.46179688 212.6078125 149.21484375 211.890625 C164.4297601 196.34429463 171.09820879 172.39139228 171.03125 151.14453125 C170.46740691 125.21777308 162.00820792 101.32490633 143 83 C120.15592279 63.28425184 95.65076928 62 66 62 Z " fill="#010101" transform="translate(16,14)"/>
<path d="M0 0 C0.79535156 0.74636719 1.59070313 1.49273437 2.41015625 2.26171875 C3.25707031 3.01839844 4.10398437 3.77507812 4.9765625 4.5546875 C21.80008855 20.2994531 29.54546101 41.32220371 31.66015625 63.88671875 C31.75264648 64.85279053 31.84513672 65.8188623 31.94042969 66.81420898 C32.05692871 68.23068726 32.05692871 68.23068726 32.17578125 69.67578125 C32.24571289 70.51061035 32.31564453 71.34543945 32.38769531 72.20556641 C32.41976901 76.56968065 31.84441357 80.9191455 31.41015625 85.26171875 C-18.41984375 85.26171875 -68.24984375 85.26171875 -119.58984375 85.26171875 C-116.33918381 101.51501843 -113.63820176 114.25559688 -99.69921875 123.98046875 C-89.54045211 130.15097886 -78.72760704 131.7732044 -67.02734375 129.57421875 C-60.46375672 127.91853914 -54.37002094 125.05587307 -49.58984375 120.26171875 C-48.92984375 120.26171875 -48.26984375 120.26171875 -47.58984375 120.26171875 C-47.30109375 119.68035156 -47.01234375 119.09898437 -46.71484375 118.5 C-46.01919434 117.11594753 -45.31293356 115.73710373 -44.58984375 114.3671875 C-44.25984375 113.73425781 -43.92984375 113.10132813 -43.58984375 112.44921875 C-43.25984375 111.82402344 -42.92984375 111.19882813 -42.58984375 110.5546875 C-41.28861805 107.57101763 -40.48407998 104.39154555 -39.58984375 101.26171875 C-17.14984375 101.26171875 5.29015625 101.26171875 28.41015625 101.26171875 C23.47352632 121.00823848 16.79688636 135.63400489 2.41015625 150.26171875 C1.65089844 151.03386719 0.89164063 151.80601562 0.109375 152.6015625 C-20.46827431 172.30356716 -49.4342392 178.81707248 -77.08984375 179.51171875 C-109.49479693 178.69905535 -141.77182087 169.71325977 -165.00463867 145.94262695 C-184.0492389 125.59401217 -191.26757017 98.98104768 -190.8671875 71.703125 C-189.9648784 46.64047971 -179.32870581 22.95064344 -161.58984375 5.26171875 C-119.9665401 -32.83708014 -43.55534598 -38.57374535 0 0 Z M-106.58984375 28.26171875 C-107.20472656 28.83664063 -107.81960938 29.4115625 -108.453125 30.00390625 C-114.6504657 36.400305 -118.58984375 44.3159044 -118.58984375 53.26171875 C-90.20984375 53.26171875 -61.82984375 53.26171875 -32.58984375 53.26171875 C-34.10193273 41.16500694 -38.95922663 32.41841385 -48.53125 24.6953125 C-56.51620951 19.29135 -65.41664748 17.71308925 -74.90234375 17.82421875 C-75.81588623 17.83179199 -76.72942871 17.83936523 -77.6706543 17.84716797 C-88.70631064 18.11435626 -98.38092052 20.46958411 -106.58984375 28.26171875 Z " fill="#030303" transform="translate(475.58984375,140.73828125)"/>
<path d="M0 0 C1.29827225 -0.0049926 1.29827225 -0.0049926 2.62277222 -0.01008606 C4.44642613 -0.01512185 6.27008915 -0.01749543 8.09375 -0.01733398 C10.83870227 -0.01950868 13.58324422 -0.03766793 16.328125 -0.05664062 C41.5260623 -0.13939435 68.94507981 3.82365284 87.78515625 22.10449219 C89.1178541 23.4455194 90.43066005 24.80622968 91.7421875 26.16796875 C92.77279297 27.16957031 92.77279297 27.16957031 93.82421875 28.19140625 C102.86297326 37.52554489 107.7421875 51.38196554 107.7421875 64.16796875 C86.2921875 64.16796875 64.8421875 64.16796875 42.7421875 64.16796875 C41.4221875 60.53796875 40.1021875 56.90796875 38.7421875 53.16796875 C34.67836393 47.6698545 27.894332 44.22766534 21.30859375 42.546875 C11.42298032 41.08735521 0.38365785 41.44063396 -8.046875 47.44140625 C-11.36999644 50.64792694 -13.17540283 53.43805451 -13.6953125 58.04296875 C-13.57079718 61.13321256 -13.25056408 62.17978099 -11.5703125 64.91796875 C-3.14522094 71.89495244 11.55700287 72.480727 21.99002075 74.11767578 C84.45937329 83.99539629 84.45937329 83.99539629 102.05859375 107.55859375 C111.49881841 122.18984682 113.69790188 141.14185314 110.0546875 158.1171875 C109.15795565 160.97552029 108.11650853 163.5095165 106.7421875 166.16796875 C106.3296875 167.01746094 105.9171875 167.86695313 105.4921875 168.7421875 C96.92177343 184.64127951 81.82514637 193.1111285 65.1015625 198.296875 C28.60398125 208.47264097 -17.3691304 208.01278313 -51.72265625 190.390625 C-69.80771105 179.87505806 -82.5484008 164.51253371 -88.0703125 144.10546875 C-89.07132304 140.07109295 -89.45907017 136.09304298 -89.79174805 131.95922852 C-89.8796611 130.87561539 -89.96757416 129.79200226 -90.05815125 128.67555237 C-90.12403946 127.84804977 -90.18992767 127.02054718 -90.2578125 126.16796875 C-81.6697553 126.1448424 -73.08171101 126.12705217 -64.49363041 126.11615658 C-60.5062405 126.11092839 -56.51887183 126.10383191 -52.53149414 126.0925293 C-48.68656136 126.08169814 -44.84164905 126.07569143 -40.99670219 126.07309151 C-39.52662267 126.07123767 -38.05654432 126.06761784 -36.58647346 126.06223869 C-34.53426783 126.0550252 -32.48214783 126.05397794 -30.42993164 126.05444336 C-28.67453819 126.05111244 -28.67453819 126.05111244 -26.88368225 126.04771423 C-24.2578125 126.16796875 -24.2578125 126.16796875 -23.2578125 127.16796875 C-22.98534551 129.01896734 -22.74016059 130.87400749 -22.5078125 132.73046875 C-21.37483529 139.78849716 -19.01758664 144.32934392 -14.0703125 149.41796875 C-5.11360762 154.99102957 3.58705483 156.35965933 13.9296875 156.41796875 C14.82494141 156.43859375 15.72019531 156.45921875 16.64257812 156.48046875 C25.55073088 156.53192378 33.69018764 154.80956864 40.7421875 149.16796875 C43.56724823 144.93037765 43.29088591 141.14601516 42.7421875 136.16796875 C41.3912587 133.24250435 41.3912587 133.24250435 39.7421875 131.16796875 C39.7421875 130.50796875 39.7421875 129.84796875 39.7421875 129.16796875 C39.18015625 128.88695312 38.618125 128.6059375 38.0390625 128.31640625 C36.52445624 127.55910312 35.01389935 126.79363883 33.5078125 126.01953125 C21.29033105 120.06256048 7.81667747 117.85411984 -5.48345947 115.58837891 C-59.56896424 106.31232965 -59.56896424 106.31232965 -74.05078125 87.94921875 C-82.42690764 75.58833321 -83.10105151 60.65139064 -80.5703125 46.2578125 C-76.4329447 31.79426422 -67.58930947 20.45426746 -54.5703125 12.85546875 C-38.15655267 3.77851847 -18.63158122 0.02554615 0 0 Z " fill="#020202" transform="translate(839.2578125,115.83203125)"/>
<path d="M0 0 C22.11 0 44.22 0 67 0 C71.5 11.25 71.5 11.25 73.07550049 15.98599243 C73.43439362 17.05992249 73.79328674 18.13385254 74.16305542 19.24032593 C74.54140533 20.38256622 74.91975525 21.52480652 75.30957031 22.70166016 C75.71980438 23.93207031 76.13003845 25.16248047 76.55270386 26.43017578 C77.66668904 29.77156245 78.7769957 33.11416065 79.88659763 36.45700502 C81.05086932 39.9624058 82.21858736 43.46665821 83.38592529 46.97103882 C85.59107854 53.59269045 87.79317349 60.21535482 89.99414515 66.83839738 C92.50207787 74.38462624 95.013458 81.9297063 97.52511454 89.4746964 C102.68722058 104.98186454 107.84504032 120.49045474 113 136 C115.14774828 130.70806091 117.2742649 125.43235866 119.06787109 120.00756836 C119.60101425 118.40313118 119.60101425 118.40313118 120.14492798 116.76628113 C120.51733612 115.63555679 120.88974426 114.50483246 121.2734375 113.33984375 C121.88718488 111.49007543 122.50093534 109.64030813 123.11482048 107.79058552 C123.76101599 105.84182471 124.40579478 103.89260041 125.0501709 101.9432373 C127.28882186 95.17186073 129.53906369 88.40433128 131.7890625 81.63671875 C132.01299683 80.96287266 132.23693115 80.28902657 132.46765137 79.59476089 C137.05059099 65.8069864 141.72814767 52.05258865 146.44555664 38.31030273 C146.98331173 36.74335292 147.52099291 35.17637774 148.05859375 33.609375 C148.31244339 32.86953873 148.56629303 32.12970245 148.82783508 31.3674469 C151.5420545 23.44200171 154.18338041 15.49235742 156.78222656 7.52832031 C157.06678711 6.66303711 157.35134766 5.79775391 157.64453125 4.90625 C157.88534424 4.16697266 158.12615723 3.42769531 158.37426758 2.66601562 C159 1 159 1 160 0 C162.08619022 -0.09417773 164.17560477 -0.11742878 166.26391602 -0.11352539 C167.2443689 -0.11374443 167.2443689 -0.11374443 168.24462891 -0.1139679 C170.41442128 -0.11326883 172.58412879 -0.10547678 174.75390625 -0.09765625 C176.25463311 -0.09579205 177.75536057 -0.09436816 179.25608826 -0.09336853 C183.21318226 -0.08954352 187.17023978 -0.0797134 191.12731934 -0.06866455 C195.16234849 -0.05845006 199.19738353 -0.05387083 203.23242188 -0.04882812 C211.15496469 -0.03809111 219.07747781 -0.0210149 227 0 C225.05690689 6.78740502 222.82164429 13.39196926 220.2890625 19.98046875 C219.74897049 21.39837456 219.74897049 21.39837456 219.19796753 22.84492493 C218.0103157 25.96040171 216.81766421 29.07393899 215.625 32.1875 C214.77767464 34.40742991 213.93067635 36.62748468 213.08398438 38.84765625 C210.84543457 44.71503784 208.60270628 50.58081332 206.35900879 56.44622803 C204.15112247 62.21979225 201.94668397 67.99467203 199.7421875 73.76953125 C197.11618353 80.64810623 194.48998231 87.52660518 191.86230469 94.40454102 C185.85158068 110.13902269 179.85719642 125.8796512 173.875 141.625 C173.47976135 142.6649411 173.08452271 143.7048822 172.67730713 144.77633667 C168.90982276 154.68940657 165.14599637 164.60377227 161.40625 174.52734375 C160.87911315 175.92433306 160.35193412 177.32130646 159.82470703 178.71826172 C158.89032876 181.19402874 157.95950865 183.67103031 157.03076172 186.14892578 C156.43932373 187.71682861 156.43932373 187.71682861 155.8359375 189.31640625 C155.50126465 190.20787354 155.1665918 191.09934082 154.82177734 192.01782227 C154 194 154 194 153 195 C150.53555943 195.09500548 148.09925374 195.12557985 145.63452148 195.11352539 C144.86384338 195.11367142 144.09316528 195.11381744 143.2991333 195.1139679 C140.73975861 195.1132686 138.1804558 195.10547545 135.62109375 195.09765625 C133.85132385 195.09579213 132.08155344 195.0943682 130.31178284 195.09336853 C125.64448634 195.08954288 120.97722077 195.0797122 116.30993652 195.06866455 C111.55102965 195.05845144 106.79211779 195.05387113 102.03320312 195.04882812 C92.68878847 195.03808997 83.3443968 195.02101299 74 195 C64.37243946 170.17564372 54.8190725 145.32467381 45.3762207 120.42944336 C44.57116051 118.30711593 43.76606584 116.18480158 42.9609375 114.0625 C42.55862411 113.00200943 42.15631073 111.94151886 41.74180603 110.84889221 C37.41579067 99.45135195 33.06220528 88.06437402 28.70895386 76.67721558 C21.88937443 58.836724 15.08266249 40.99143147 8.3237915 23.12783813 C7.5707129 21.13770345 6.81709788 19.14777165 6.06292725 17.15805054 C5.03372887 14.44194823 4.00672203 11.72502871 2.98046875 9.0078125 C2.67534866 8.20343246 2.37022858 7.39905243 2.05586243 6.57029724 C0 1.11479004 0 1.11479004 0 0 Z " fill="#020202" transform="translate(518,120)"/>
<path d="M0 0 C3.3 0 6.6 0 10 0 C10 3.63 10 7.26 10 11 C11.65 11 13.3 11 15 11 C15 13.97 15 16.94 15 20 C13.35 20 11.7 20 10 20 C10 26.93 10 33.86 10 41 C6.7 41 3.4 41 0 41 C0 34.07 0 27.14 0 20 C-1.65 20 -3.3 20 -5 20 C-5.66 18.68 -6.32 17.36 -7 16 C-12.28 29.86 -17.56 43.72 -23 58 C-26.63 58 -30.26 58 -34 58 C-33.54625 56.494375 -33.0925 54.98875 -32.625 53.4375 C-32.35816406 52.52097656 -32.09132813 51.60445313 -31.81640625 50.66015625 C-31 48 -31 48 -29.5625 44.375 C-28.89241768 40.3545061 -30.00361913 38.77733651 -31.85327148 35.27832031 C-33.81696471 31.37685445 -35.25852417 27.28745822 -36.75 23.1875 C-37.06582031 22.34251953 -37.38164063 21.49753906 -37.70703125 20.62695312 C-38.00480469 19.81548828 -38.30257812 19.00402344 -38.609375 18.16796875 C-38.87717773 17.43860107 -39.14498047 16.7092334 -39.42089844 15.95776367 C-40 14 -40 14 -40 11 C-38.56510191 10.86463226 -37.12652893 10.76782857 -35.6875 10.6875 C-34.88699219 10.62949219 -34.08648438 10.57148438 -33.26171875 10.51171875 C-31 11 -31 11 -29.375 13.0625 C-27.8015678 16.42392335 -26.52548761 19.80467096 -25.3125 23.3125 C-25.08755859 23.95767578 -24.86261719 24.60285156 -24.63085938 25.26757812 C-24.08226467 26.84332887 -23.54043041 28.42143054 -23 30 C-22.823479 29.45996338 -22.64695801 28.91992676 -22.46508789 28.36352539 C-21.66733505 25.92881836 -20.86498121 23.49565242 -20.0625 21.0625 C-19.78470703 20.21236328 -19.50691406 19.36222656 -19.22070312 18.48632812 C-18.95322266 17.67744141 -18.68574219 16.86855469 -18.41015625 16.03515625 C-18.16402588 15.2862915 -17.91789551 14.53742676 -17.66430664 13.76586914 C-17 12 -17 12 -16 11 C-13.30345146 10.92680379 -10.63308542 10.90757463 -7.9375 10.9375 C-6.79958008 10.94426758 -6.79958008 10.94426758 -5.63867188 10.95117188 C-3.75908129 10.9629932 -1.87953101 10.98092922 0 11 C0 7.37 0 3.74 0 0 Z " fill="#141414" transform="translate(706,369)"/>
<path d="M0 0 C0.495 0.33 0.99 0.66 1.5 1 C2.16 0.34 2.82 -0.32 3.5 -1 C5.62890625 -1.23046875 5.62890625 -1.23046875 8.0625 -1.1875 C9.27099609 -1.17783203 9.27099609 -1.17783203 10.50390625 -1.16796875 C12.5 -1 12.5 -1 13.5 0 C13.74391515 4.45034272 13.72858647 8.90649691 13.74023438 13.36279297 C13.74987099 15.59511563 13.78084597 17.82649017 13.8125 20.05859375 C13.81903701 21.48957788 13.82428474 22.92056859 13.828125 24.3515625 C13.8374707 25.64916504 13.84681641 26.94676758 13.85644531 28.28369141 C13.4027071 33.01437847 12.18516624 36.98792993 9.0703125 40.70703125 C3.50586568 44.96308111 -0.44108273 46.59821333 -7.5 46 C-13.67922982 44.59937457 -16.97133586 42.23953159 -20.5 37 C-21.375 34.6875 -21.375 34.6875 -21.5 33 C-19.94049449 31.44049449 -18.41122869 31.71803302 -16.25 31.625 C-12.36331934 31.63729962 -11.78273368 31.74296938 -8.75 34.5 C-8.0075 35.325 -7.265 36.15 -6.5 37 C-3.53351831 37.56504413 -2.24588643 37.46296399 0.3125 35.875 C1.99106106 33.22464043 1.70450238 31.06753576 1.5 28 C0.819375 28.33 0.13875 28.66 -0.5625 29 C-4.65660102 30.39373652 -8.20147454 30.80472485 -12.36328125 29.34765625 C-16.33609777 27.36550154 -18.86640033 24.97788331 -20.83984375 20.98828125 C-22.29876486 16.59425259 -22.3796442 12.32477397 -20.734375 7.9765625 C-16.47398427 -0.03702959 -8.64585614 -3.45834246 0 0 Z M-8.375 9 C-10.86567455 11.88894835 -10.86567455 11.88894835 -10.4375 15.6875 C-9.77734142 19.04787282 -9.77734142 19.04787282 -7.5 21 C-2.8577566 21.44869173 -2.8577566 21.44869173 1.4375 19.9375 C3.1140629 16.88023824 2.86528977 14.4093712 2.5 11 C0.97760845 8.59622386 -0.26009392 8.10101308 -2.875 7 C-5.72455921 6.75015929 -5.72455921 6.75015929 -8.375 9 Z " fill="#111111" transform="translate(838.5,381)"/>
<path d="M0 0 C23.26940639 0 23.26940639 0 30.0234375 5.7109375 C35.70559152 12.70688435 36.83327022 19.06838479 36 28 C34.04451694 34.27812983 30.83245998 38.9965527 25.4375 42.8125 C17.09405662 46.87725447 10.17594828 45 0 45 C0 30.15 0 15.3 0 0 Z M10 9 C10 17.91 10 26.82 10 36 C18.37606318 35.10547104 18.37606318 35.10547104 24 30 C26.30317075 25.39365851 26.17427712 21.96809551 25 17 C23.43000696 13.16223924 22.32660239 12.17539758 18.625 10.1875 C14.84383392 8.74057656 14.84383392 8.74057656 10 9 Z " fill="#0A0A0A" transform="translate(368,365)"/>
<path d="M0 0 C3.3 0 6.6 0 10 0 C12.42771304 5.92381733 14.84860959 11.85035598 17.26318359 17.77954102 C18.08585023 19.79690928 18.91038663 21.81351611 19.73681641 23.8293457 C20.92320246 26.72409918 22.10287534 29.62150893 23.28125 32.51953125 C23.65310425 33.42274612 24.0249585 34.325961 24.40808105 35.25654602 C24.74843384 36.09719101 25.08878662 36.937836 25.43945312 37.80395508 C25.7414563 38.54341873 26.04345947 39.28288239 26.35461426 40.04475403 C27 42 27 42 27 45 C23.37 45 19.74 45 16 45 C15.01 42.36 14.02 39.72 13 37 C7.39 36.67 1.78 36.34 -4 36 C-4.33 37.98 -4.66 39.96 -5 42 C-5.66 42.99 -6.32 43.98 -7 45 C-9.6015625 45.29296875 -9.6015625 45.29296875 -12.625 45.1875 C-14.12933594 45.14689453 -14.12933594 45.14689453 -15.6640625 45.10546875 C-16.43492187 45.07066406 -17.20578125 45.03585937 -18 45 C-12.53719517 29.78560936 -6.23099729 14.91085814 0 0 Z M4 13 C3.32779649 14.93558599 2.66241923 16.87354372 2 18.8125 C1.62875 19.89144531 1.2575 20.97039062 0.875 22.08203125 C-0.14361512 24.97120802 -0.14361512 24.97120802 0 28 C3.3 28 6.6 28 10 28 C9.54705135 26.24859857 9.08741252 24.49892656 8.625 22.75 C8.36976563 21.77546875 8.11453125 20.8009375 7.8515625 19.796875 C7.10401491 17.34162697 6.22876183 15.24382595 5 13 C4.67 13 4.34 13 4 13 Z " fill="#0B0B0B" transform="translate(602,365)"/>
<path d="M0 0 C3.63 0 7.26 0 11 0 C11.33 7.26 11.66 14.52 12 22 C13.32 21.34 14.64 20.68 16 20 C20.54061024 19.56756093 22.8689125 19.38527853 26.875 21.5625 C31.70592385 27.10385382 31.26280286 33.96785558 31.125 40.9375 C31.11597656 41.81212891 31.10695313 42.68675781 31.09765625 43.58789062 C31.0742957 45.72538064 31.03843247 47.86272786 31 50 C27.37 50 23.74 50 20 50 C19.505 40.1 19.505 40.1 19 30 C17.68 29.67 16.36 29.34 15 29 C12.84823274 30.46926839 12.12119688 31.44137203 11.56762695 33.99291992 C11.54144287 34.73131104 11.51525879 35.46970215 11.48828125 36.23046875 C11.45283203 37.03291016 11.41738281 37.83535156 11.38085938 38.66210938 C11.34702148 39.91217773 11.34702148 39.91217773 11.3125 41.1875 C11.27833984 42.03248047 11.24417969 42.87746094 11.20898438 43.74804688 C11.12658529 45.83156649 11.06161355 47.91576216 11 50 C7.37 50 3.74 50 0 50 C0 33.5 0 17 0 0 Z " fill="#161616" transform="translate(726,360)"/>
<path d="M0 0 C0 8.91 0 17.82 0 27 C1.98 27 3.96 27 6 27 C6 29.97 6 32.94 6 36 C4.02 36 2.04 36 0 36 C0 38.97 0 41.94 0 45 C-3.63 45 -7.26 45 -11 45 C-11 42.03 -11 39.06 -11 36 C-18.92 36 -26.84 36 -35 36 C-30.40998087 28.61605618 -25.6046295 21.47301739 -20.47265625 14.4609375 C-18.84998551 12.23202848 -17.39069889 10.01636457 -15.93359375 7.6640625 C-15.29550781 6.66117187 -14.65742187 5.65828125 -14 4.625 C-13.46375 3.73039062 -12.9275 2.83578125 -12.375 1.9140625 C-10 0 -10 0 0 0 Z M-12 15 C-13.22727981 16.59516944 -14.40706505 18.22704632 -15.5625 19.875 C-16.20316406 20.77992188 -16.84382812 21.68484375 -17.50390625 22.6171875 C-19.17724832 24.81337567 -19.17724832 24.81337567 -19 27 C-16.36 27 -13.72 27 -11 27 C-11 23.04 -11 19.08 -11 15 C-11.33 15 -11.66 15 -12 15 Z " fill="#19E0BC" transform="translate(560,365)"/>
<path d="M0 0 C3.76746535 2.51164356 6.17522011 4.40066033 7.625 8.75 C7.625 11.06 7.625 13.37 7.625 15.75 C0.365 15.75 -6.895 15.75 -14.375 15.75 C-13.385 17.4 -12.395 19.05 -11.375 20.75 C-8.33220628 21.41680368 -8.33220628 21.41680368 -5.375 20.75 C-4.715 19.76 -4.055 18.77 -3.375 17.75 C-0.7734375 17.45703125 -0.7734375 17.45703125 2.25 17.5625 C3.75433594 17.60310547 3.75433594 17.60310547 5.2890625 17.64453125 C6.05992187 17.67933594 6.83078125 17.71414063 7.625 17.75 C5.67225045 23.39127648 4.06632532 25.80261545 -1.375 28.75 C-6.59420105 30.48973368 -10.91890543 30.21891181 -16.0625 28.5625 C-20.07691753 26.36593192 -23.29719613 23.90560773 -25.375 19.75 C-25.89092086 14.57387595 -25.97238983 10.11901836 -23.875 5.3125 C-17.23171403 -1.49686812 -8.97772813 -3.32508449 0 0 Z M-13.25 7.125 C-14.56473666 8.69466014 -14.56473666 8.69466014 -14.375 10.75 C-10.415 10.75 -6.455 10.75 -2.375 10.75 C-2.705 9.43 -3.035 8.11 -3.375 6.75 C-6.74099042 5.06700479 -10.16109116 4.85980019 -13.25 7.125 Z " fill="#121212" transform="translate(434.375,381.25)"/>
<path d="M0 0 C1.20462891 -0.02126953 1.20462891 -0.02126953 2.43359375 -0.04296875 C4.5625 0.1875 4.5625 0.1875 6.5625 2.1875 C7.0575 1.8575 7.5525 1.5275 8.0625 1.1875 C11.57242264 -0.21646906 14.86730378 -0.40755148 18.5625 0.1875 C22.64796937 2.58549289 24.10793923 4.76607138 25.5625 9.1875 C25.78955078 11.68286133 25.78955078 11.68286133 25.7578125 14.26953125 C25.75136719 15.20087891 25.74492188 16.13222656 25.73828125 17.09179688 C25.72152344 18.05150391 25.70476563 19.01121094 25.6875 20 C25.67847656 20.97904297 25.66945313 21.95808594 25.66015625 22.96679688 C25.63667326 25.37380348 25.60080477 27.78068364 25.5625 30.1875 C21.9325 30.1875 18.3025 30.1875 14.5625 30.1875 C14.0675 20.2875 14.0675 20.2875 13.5625 10.1875 C12.2425 9.8575 10.9225 9.5275 9.5625 9.1875 C7.41073274 10.65676839 6.68369688 11.62887203 6.13012695 14.18041992 C6.10394287 14.91881104 6.07775879 15.65720215 6.05078125 16.41796875 C6.01533203 17.22041016 5.97988281 18.02285156 5.94335938 18.84960938 C5.90952148 20.09967773 5.90952148 20.09967773 5.875 21.375 C5.84083984 22.21998047 5.80667969 23.06496094 5.77148438 23.93554688 C5.68908529 26.01906649 5.62411355 28.10326216 5.5625 30.1875 C1.9325 30.1875 -1.6975 30.1875 -5.4375 30.1875 C-5.46215746 26.0757744 -5.48033959 21.96407722 -5.49243164 17.85229492 C-5.4974708 16.45254772 -5.50430216 15.0528058 -5.51293945 13.65307617 C-5.5250232 11.64504223 -5.53019807 9.63697043 -5.53515625 7.62890625 C-5.54039307 6.41920166 -5.54562988 5.20949707 -5.55102539 3.96313477 C-5.37025788 -0.45653364 -4.0074791 0.03205983 0 0 Z " fill="#171717" transform="translate(638.4375,379.8125)"/>
<path d="M0 0 C2.97 0 5.94 0 9 0 C9.66 0.66 10.32 1.32 11 2 C11.495 1.67 11.99 1.34 12.5 1 C16.02935326 -0.4117413 19.29485666 -0.71115995 23 0 C26.52379766 1.97029546 28.70068885 4.10206655 30 8 C30.08178114 9.70016844 30.10749501 11.40336297 30.09765625 13.10546875 C30.09443359 14.08837891 30.09121094 15.07128906 30.08789062 16.08398438 C30.07951172 17.10814453 30.07113281 18.13230469 30.0625 19.1875 C30.05798828 20.22326172 30.05347656 21.25902344 30.04882812 22.32617188 C30.03704026 24.8841392 30.01910482 27.44207686 30 30 C26.7 30 23.4 30 20 30 C19.67 23.07 19.34 16.14 19 9 C14.26239342 8.47114144 14.26239342 8.47114144 12.23046875 10.453125 C10.43697171 14.16537918 10.43080736 17.6734664 10.3125 21.75 C10.27833984 22.54277344 10.24417969 23.33554687 10.20898438 24.15234375 C10.12680896 26.10107504 10.06171955 28.05051362 10 30 C6.7 30 3.4 30 0 30 C0 20.1 0 10.2 0 0 Z " fill="#080808" transform="translate(782,380)"/>
<path d="M0 0 C2.375 1.6875 2.375 1.6875 4.375 4.6875 C4.375 6.0075 4.375 7.3275 4.375 8.6875 C1.075 8.6875 -2.225 8.6875 -5.625 8.6875 C-5.955 8.0275 -6.285 7.3675 -6.625 6.6875 C-8.605 6.6875 -10.585 6.6875 -12.625 6.6875 C-12.955 7.3475 -13.285 8.0075 -13.625 8.6875 C-12.82835937 8.78546875 -12.03171875 8.8834375 -11.2109375 8.984375 C-5.02440099 9.85741422 -0.40650975 10.55214021 4.375 14.6875 C5.80162219 17.54074437 5.68533868 19.52204549 5.375 22.6875 C3.62231451 25.5437282 2.09796294 27.24096407 -0.75 29 C-8.20271221 30.78217031 -14.78032347 30.04979724 -21.625 26.6875 C-24.72972133 23.68293097 -24.72263477 22.19932615 -25.625 17.6875 C-21.995 17.6875 -18.365 17.6875 -14.625 17.6875 C-14.295 18.6775 -13.965 19.6675 -13.625 20.6875 C-10.985 21.0175 -8.345 21.3475 -5.625 21.6875 C-5.625 20.3675 -5.625 19.0475 -5.625 17.6875 C-6.81996094 17.54054688 -6.81996094 17.54054688 -8.0390625 17.390625 C-19.79351441 15.7318459 -19.79351441 15.7318459 -23.625 11.6875 C-24.41510955 8.84310562 -24.41911517 6.53113301 -23.625 3.6875 C-17.53038734 -2.73655118 -7.98969904 -2.89282207 0 0 Z " fill="#131313" transform="translate(503.625,381.3125)"/>
<path d="M0 0 C1.43489809 -0.13536774 2.87347107 -0.23217143 4.3125 -0.3125 C5.11300781 -0.37050781 5.91351563 -0.42851562 6.73828125 -0.48828125 C9 0 9 0 10.625 2.0625 C12.1984322 5.42392335 13.47451239 8.80467096 14.6875 12.3125 C14.91244141 12.95767578 15.13738281 13.60285156 15.36914062 14.26757812 C15.91773533 15.84332887 16.45956959 17.42143054 17 19 C17.176521 18.45996338 17.35304199 17.91992676 17.53491211 17.36352539 C18.33266495 14.92881836 19.13501879 12.49565242 19.9375 10.0625 C20.21529297 9.21236328 20.49308594 8.36222656 20.77929688 7.48632812 C21.04677734 6.67744141 21.31425781 5.86855469 21.58984375 5.03515625 C21.83597412 4.2862915 22.08210449 3.53742676 22.33569336 2.76586914 C23 1 23 1 24 0 C25.51928038 -0.07179964 27.04167482 -0.08392007 28.5625 -0.0625 C29.38878906 -0.05347656 30.21507812 -0.04445313 31.06640625 -0.03515625 C31.70449219 -0.02355469 32.34257812 -0.01195312 33 0 C34 2 34 2 33.21142578 4.68969727 C32.58469971 6.36116821 32.58469971 6.36116821 31.9453125 8.06640625 C31.49542969 9.27361328 31.04554688 10.48082031 30.58203125 11.72460938 C30.22359131 12.66856567 30.22359131 12.66856567 29.85791016 13.6315918 C29.12765708 15.55549972 28.40858912 17.48329602 27.69140625 19.41210938 C24.1504892 28.8495108 24.1504892 28.8495108 23 30 C20.98035801 30.07244053 18.95832876 30.08377188 16.9375 30.0625 C15.28041016 30.04896484 15.28041016 30.04896484 13.58984375 30.03515625 C12.73519531 30.02355469 11.88054687 30.01195312 11 30 C7.96959309 24.18725046 5.489858 18.34470623 3.25 12.1875 C2.93417969 11.34251953 2.61835938 10.49753906 2.29296875 9.62695312 C1.84630859 8.40975586 1.84630859 8.40975586 1.390625 7.16796875 C0.9889209 6.07391724 0.9889209 6.07391724 0.57910156 4.95776367 C0 3 0 3 0 0 Z " fill="#131313" transform="translate(444,380)"/>
<path d="M0 0 C3.3 0 6.6 0 10 0 C10 3.63 10 7.26 10 11 C11.65 11 13.3 11 15 11 C15 13.97 15 16.94 15 20 C13.35 20 11.7 20 10 20 C10 26.93 10 33.86 10 41 C6.7 41 3.4 41 0 41 C0 34.07 0 27.14 0 20 C-1.65 20 -3.3 20 -5 20 C-5 17.03 -5 14.06 -5 11 C-3.35 11 -1.7 11 0 11 C0 7.37 0 3.74 0 0 Z " fill="#0D0D0D" transform="translate(706,369)"/>
<path d="M0 0 C2.97 0 5.94 0 9 0 C10 1 10 1 10.11352539 3.77563477 C10.10828857 4.98533936 10.10305176 6.19504395 10.09765625 7.44140625 C10.09443359 8.74658203 10.09121094 10.05175781 10.08789062 11.39648438 C10.07953401 12.7851569 10.07106905 14.17382877 10.0625 15.5625 C10.05748666 16.95507656 10.05292347 18.34765481 10.04882812 19.74023438 C10.03699434 23.1601987 10.0205088 26.58007844 10 30 C6.7 30 3.4 30 0 30 C0 20.1 0 10.2 0 0 Z " fill="#0C0C0C" transform="translate(764,380)"/>
<path d="M0 0 C1.9375 1.6875 1.9375 1.6875 3 4 C2.92196617 7.19938696 2.43745759 8.53129544 0.25 10.875 C-2 12 -2 12 -4.625 11.875 C-7 11 -7 11 -9 8 C-8.75 4.375 -8.75 4.375 -8 1 C-5.17116253 -0.41441874 -3.12623255 -0.31900332 0 0 Z " fill="#171717" transform="translate(772,365)"/>
</svg>
