<?xml version="1.0" encoding="UTF-8"?>
<svg version="1.1" xmlns="http://www.w3.org/2000/svg" width="256" height="256">
<path d="M0 0 C16.17 0 32.34 0 49 0 C49 48.84 49 97.68 49 148 C60.55 148 72.1 148 84 148 C84 164.83 84 181.66 84 199 C72.45 199 60.9 199 49 199 C49 214.84 49 230.68 49 247 C31.18 247 13.36 247 -5 247 C-5 231.16 -5 215.32 -5 199 C-48.23 199 -91.46 199 -136 199 C-134.44454395 195.11135988 -133.21693736 192.62832125 -130.8671875 189.32421875 C-129.91682617 187.97602051 -129.91682617 187.97602051 -128.94726562 186.60058594 C-128.26341797 185.63926758 -127.57957031 184.67794922 -126.875 183.6875 C-120.28827071 174.33578545 -113.86947767 164.88984893 -107.58154297 155.3347168 C-103.826186 149.65147867 -99.93215356 144.10381766 -95.90185547 138.61230469 C-93.12371603 134.79637504 -90.46336848 130.90493318 -87.8125 127 C-86.68363845 125.34371953 -85.55473088 123.68747043 -84.42578125 122.03125 C-83.85811035 121.19722656 -83.29043945 120.36320312 -82.70556641 119.50390625 C-79.97696114 115.49809812 -77.23820326 111.49925061 -74.5 107.5 C-71.2821175 102.79894255 -68.06542715 98.09709779 -64.85546875 93.390625 C-58.98796784 84.79276581 -53.07868422 76.22594046 -47.125 67.6875 C-39.33495674 56.51348737 -31.65880821 45.26418484 -24 34 C-2.73372781 2.73372781 -2.73372781 2.73372781 0 0 Z M-6 75 C-6.90060746 76.22345538 -7.75238259 77.48284977 -8.58520508 78.75341797 C-9.12699905 79.5762326 -9.66879303 80.39904724 -10.227005 81.24679565 C-10.81853867 82.15277496 -11.41007233 83.05875427 -12.01953125 83.9921875 C-12.63334152 84.92612335 -13.24715179 85.8600592 -13.87956238 86.82229614 C-15.86048098 89.83773047 -17.83663279 92.85625386 -19.8125 95.875 C-21.74298488 98.81805144 -23.67445712 101.76045265 -25.60617065 104.70269775 C-26.88377819 106.64878888 -28.16089668 108.59520115 -29.43753052 110.54193115 C-33.88658245 117.32169108 -38.36740809 124.07938883 -42.89082336 130.80978394 C-46.69323727 136.48407987 -50.32890527 142.23113686 -54 148 C-37.83 148 -21.66 148 -5 148 C-5 123.91 -5 99.82 -5 75 C-5.33 75 -5.66 75 -6 75 Z " fill="#10DFBA" transform="translate(144,4)"/>
</svg>
